<?xml version="1.0" encoding="UTF-8"?>
<svg xmlns="http://www.w3.org/2000/svg" xmlns:xlink="http://www.w3.org/1999/xlink" viewBox="0 0 1658.55 1739.21">
  <defs>
    <style>
      .cls-1 {
        fill: url(#Gradiente_sem_nome_78-2);
      }

      .cls-1, .cls-2, .cls-3, .cls-4, .cls-5 {
        mix-blend-mode: soft-light;
      }

      .cls-1, .cls-4, .cls-5 {
        opacity: .2;
      }

      .cls-6 {
        isolation: isolate;
      }

      .cls-2 {
        fill: url(#Gradiente_sem_nome_128);
        opacity: .1;
      }

      .cls-3 {
        fill: url(#Gradiente_sem_nome_83);
      }

      .cls-4 {
        fill: url(#Gradiente_sem_nome_78);
      }

      .cls-7 {
        clip-path: url(#clippath);
      }

      .cls-8 {
        fill: none;
      }

      .cls-5 {
        fill: url(#Gradiente_sem_nome_82);
      }

      .cls-9 {
        fill: #0f9bf2;
      }
    </style>
    <clipPath id="clippath">
      <path class="cls-8" d="m1473.7,1412.71c-77.14,115.16-183.3,170.67-246.34,203.67-144.02,75.37-278.45,89.17-353.9,91.24,73.16-38.46,130.74-78.91,173.04-112.28,39.64-31.3,90.87-72.12,144.61-138.49,31.37-38.76,54.11-74.48,69.91-101.8,5.02-8.49,20.52-35.73,34.47-73.82h-120.18c-14.84,31.6-64.08,125.57-177.83,220.8-81.65,68.43-223.31,187.06-432.51,191.64-58.24,1.33-258.81,5.76-384.01-140.85-90.87-106.52-96.04-236.59-95.89-291.59.3-103.05,25.39-204.48,71.02-296.91,127.78-259.33,255.64-518.59,383.42-777.92,7.38-14.98,20.45-26.35,36.25-31.74L946.32,28.72c-161.15,342.38-322.23,684.76-483.38,1027.21-9.82,20.89-42.52,88.36-34.84,173.85,2.58,28.27,8.42,93.01,57.14,142.1,67.18,67.69,167.35,56.84,192.89,54.11,117.82-12.7,209.72-99.44,247.08-189.79,10.85-26.28,15.72-49.54,18.16-65.11,79.95-2.29,159.97-4.5,239.92-6.72,16.31-.44,28.35,14.99,23.92,30.71-2.65,9.42-.81,18.7-28.79,79.43-1.3,2.82-2.38,5.15-3.1,6.72h120.18c19-51.18,44.76-147.96,3.91-238.29-67.33-148.88-294.12-232.76-542.8-156.28,36.84-86.74,73.67-173.55,110.51-260.37,2.95-6.94,8.86-12.18,16.17-13.95,261.69-65.26,524.27,46.06,634.04,253.79,100.25,189.79,47.1,411.18-43.63,546.57Z"/>
    </clipPath>
    <radialGradient id="Gradiente_sem_nome_83" data-name="Gradiente sem nome 83" cx="384.36" cy="1404.32" fx="384.36" fy="1404.32" r="2344.73" gradientUnits="userSpaceOnUse">
      <stop offset="0" stop-color="#fff"/>
      <stop offset=".02" stop-color="#ecffff" stop-opacity=".93"/>
      <stop offset=".09" stop-color="#bff" stop-opacity=".74"/>
      <stop offset=".17" stop-color="#8effff" stop-opacity=".56"/>
      <stop offset=".25" stop-color="#68ffff" stop-opacity=".41"/>
      <stop offset=".34" stop-color="#47ffff" stop-opacity=".28"/>
      <stop offset=".43" stop-color="#2dffff" stop-opacity=".18"/>
      <stop offset=".53" stop-color="#19ffff" stop-opacity=".1"/>
      <stop offset=".64" stop-color="#0affff" stop-opacity=".04"/>
      <stop offset=".77" stop-color="#02ffff" stop-opacity="0"/>
      <stop offset="1" stop-color="aqua" stop-opacity="0"/>
    </radialGradient>
    <radialGradient id="Gradiente_sem_nome_78" data-name="Gradiente sem nome 78" cx="233.63" cy="1275.74" fx="233.63" fy="1275.74" r="382.31" gradientTransform="translate(970.51 208.45) rotate(45)" gradientUnits="userSpaceOnUse">
      <stop offset=".66" stop-color="#fff"/>
      <stop offset=".72" stop-color="#c2ffff" stop-opacity=".76"/>
      <stop offset=".82" stop-color="#5affff" stop-opacity=".36"/>
      <stop offset=".89" stop-color="#19ffff" stop-opacity=".1"/>
      <stop offset=".92" stop-color="aqua" stop-opacity="0"/>
    </radialGradient>
    <radialGradient id="Gradiente_sem_nome_82" data-name="Gradiente sem nome 82" cx="-257.47" cy="1186.04" fx="-257.47" fy="1186.04" r="316.81" gradientUnits="userSpaceOnUse">
      <stop offset=".89" stop-color="#fff"/>
      <stop offset=".89" stop-color="#c2ffff" stop-opacity=".76"/>
      <stop offset=".91" stop-color="#5affff" stop-opacity=".36"/>
      <stop offset=".91" stop-color="#19ffff" stop-opacity=".1"/>
      <stop offset=".92" stop-color="aqua" stop-opacity="0"/>
    </radialGradient>
    <radialGradient id="Gradiente_sem_nome_78-2" data-name="Gradiente sem nome 78" cx="1031.16" cy="1257.76" fx="1031.16" fy="1257.76" r="858.78" gradientTransform="matrix(1,0,0,1,0,0)" xlink:href="#Gradiente_sem_nome_78"/>
    <radialGradient id="Gradiente_sem_nome_128" data-name="Gradiente sem nome 128" cx="172.38" cy="781.8" fx="172.38" fy="781.8" r="657.89" gradientTransform="translate(603.31 107.09) rotate(45)" gradientUnits="userSpaceOnUse">
      <stop offset=".65" stop-color="#fcee21" stop-opacity=".07"/>
      <stop offset=".69" stop-color="#fcee28" stop-opacity=".08"/>
      <stop offset=".72" stop-color="#fcf040" stop-opacity=".12"/>
      <stop offset=".76" stop-color="#fcf369" stop-opacity=".19"/>
      <stop offset=".79" stop-color="#fdf7a1" stop-opacity=".28"/>
      <stop offset=".83" stop-color="#fefde8" stop-opacity=".41"/>
      <stop offset=".84" stop-color="#fff" stop-opacity=".44"/>
      <stop offset=".85" stop-color="#fff" stop-opacity=".45"/>
      <stop offset=".85" stop-color="#fff" stop-opacity=".48"/>
      <stop offset=".85" stop-color="#fff" stop-opacity=".52"/>
      <stop offset=".85" stop-color="#fff" stop-opacity=".59"/>
      <stop offset=".85" stop-color="#fff" stop-opacity=".68"/>
      <stop offset=".85" stop-color="#fff" stop-opacity=".78"/>
      <stop offset=".85" stop-color="#fff" stop-opacity=".91"/>
      <stop offset=".85" stop-color="#fff"/>
      <stop offset=".87" stop-color="#fefaca" stop-opacity=".76"/>
      <stop offset=".89" stop-color="#fdf470" stop-opacity=".36"/>
      <stop offset=".91" stop-color="#fcef37" stop-opacity=".1"/>
      <stop offset=".92" stop-color="#fcee21" stop-opacity="0"/>
    </radialGradient>
  </defs>
  <g class="cls-6">
    <g id="Layer_1" data-name="Layer 1">
      <g class="cls-7">
        <g>
          <path class="cls-9" d="m946.3,28.62c-161.12,342.4-322.24,684.79-483.37,1027.19-9.85,20.93-42.55,88.37-34.84,173.9,2.55,28.27,8.38,92.97,57.14,142.09,67.19,67.68,167.37,56.87,192.9,54.11,117.82-12.71,209.69-99.41,247.05-189.8,10.87-26.31,15.75-49.55,18.15-65.13,79.97-2.24,159.94-4.48,239.91-6.71,16.3-.46,28.34,15,23.94,30.69-6.49,23.14-15.66,50.24-28.8,79.5-9.95,22.16-57.43,124.12-180.92,227.52-81.65,68.37-223.36,187.02-432.56,191.64-58.22,1.29-258.81,5.76-383.96-140.9-90.91-106.54-96.04-236.6-95.89-291.58.29-103.05,25.4-204.51,70.96-296.94,127.82-259.29,255.64-518.58,383.46-777.87,7.38-14.97,20.4-26.4,36.21-31.77L946.3,28.62Z"/>
          <g>
            <circle class="cls-3" cx="384.36" cy="1404.32" r="2344.73"/>
            <circle class="cls-4" cx="233.63" cy="1275.74" r="382.31" transform="translate(-833.65 538.86) rotate(-45)"/>
            <circle class="cls-5" cx="-257.47" cy="1186.04" r="316.81"/>
            <circle class="cls-1" cx="1031.16" cy="1257.76" r="858.78"/>
            <circle class="cls-2" cx="172.38" cy="781.8" r="657.89" transform="translate(-502.33 350.88) rotate(-45)"/>
          </g>
          <path class="cls-9" d="m756.61,886.61c36.83-86.8,73.65-173.6,110.48-260.4,2.93-6.92,8.9-12.15,16.19-13.96,261.66-65.22,524.27,46.07,634,253.81,100.24,189.76,47.14,411.17-43.59,546.55-77.16,115.14-183.32,170.7-246.34,203.68-144.03,75.38-278.47,89.17-353.91,91.28,73.19-38.51,130.76-78.96,173.04-112.33,39.66-31.3,90.9-72.13,144.59-138.48,31.36-38.75,54.13-74.45,69.9-101.76,13.09-22.29,98.73-173.11,38.38-312.13-68.65-158.15-304.01-249.84-542.75-156.25Z"/>
        </g>
      </g>
    </g>
  </g>
</svg>