<?xml version="1.0" encoding="UTF-8"?>
<svg xmlns="http://www.w3.org/2000/svg" xmlns:xlink="http://www.w3.org/1999/xlink" viewBox="0 0 7259.48 1360.34">
  <defs>
    <style>
      .cls-1 {
        fill: #fff;
      }

      .cls-2 {
        isolation: isolate;
      }

      .cls-3 {
        fill: url(#Gradiente_sem_nome_83);
        mix-blend-mode: soft-light;
      }

      .cls-4 {
        clip-path: url(#clippath);
      }

      .cls-5 {
        fill: none;
      }
    </style>
    <clipPath id="clippath">
      <path class="cls-5" d="m-478.98,2389.17c-77.14,115.16-183.3,170.67-246.34,203.67-144.02,75.37-278.45,89.17-353.9,91.24,73.16-38.46,130.74-78.91,173.04-112.28,39.64-31.3,90.87-72.12,144.61-138.49,31.37-38.76,54.11-74.48,69.91-101.8,5.02-8.49,20.52-35.73,34.47-73.82h-120.18c-14.84,31.6-64.08,125.57-177.83,220.8-81.65,68.43-223.31,187.06-432.51,191.64-58.24,1.33-258.81,5.76-384.01-140.85-90.87-106.52-96.04-236.59-95.89-291.59.3-103.05,25.39-204.48,71.02-296.91,127.78-259.33,255.64-518.59,383.42-777.92,7.38-14.98,20.45-26.35,36.25-31.74l370.58-125.94c-161.15,342.38-322.23,684.76-483.38,1027.21-9.82,20.89-42.52,88.36-34.84,173.85,2.58,28.27,8.42,93.01,57.14,142.1,67.18,67.69,167.35,56.84,192.89,54.11,117.82-12.7,209.72-99.44,247.08-189.79,10.85-26.28,15.72-49.54,18.16-65.11,79.95-2.29,159.97-4.5,239.92-6.72,16.31-.44,28.35,14.99,23.92,30.71-2.65,9.42-.81,18.7-28.79,79.43-1.3,2.82-2.38,5.15-3.1,6.72h120.18c19-51.18,44.76-147.96,3.91-238.29-67.33-148.88-294.12-232.76-542.8-156.28,36.84-86.74,73.67-173.55,110.51-260.37,2.95-6.94,8.86-12.18,16.17-13.95,261.69-65.26,524.27,46.06,634.04,253.79,100.25,189.79,47.1,411.18-43.63,546.57Z"/>
    </clipPath>
    <radialGradient id="Gradiente_sem_nome_83" data-name="Gradiente sem nome 83" cx="-1568.32" cy="2380.78" fx="-1568.32" fy="2380.78" r="2344.73" gradientUnits="userSpaceOnUse">
      <stop offset="0" stop-color="#fff"/>
      <stop offset=".02" stop-color="#ecffff" stop-opacity=".93"/>
      <stop offset=".09" stop-color="#bff" stop-opacity=".74"/>
      <stop offset=".17" stop-color="#8effff" stop-opacity=".56"/>
      <stop offset=".25" stop-color="#68ffff" stop-opacity=".41"/>
      <stop offset=".34" stop-color="#47ffff" stop-opacity=".28"/>
      <stop offset=".43" stop-color="#2dffff" stop-opacity=".18"/>
      <stop offset=".53" stop-color="#19ffff" stop-opacity=".1"/>
      <stop offset=".64" stop-color="#0affff" stop-opacity=".04"/>
      <stop offset=".77" stop-color="#02ffff" stop-opacity="0"/>
      <stop offset="1" stop-color="aqua" stop-opacity="0"/>
    </radialGradient>
  </defs>
  <g class="cls-2">
    <g id="Layer_1" data-name="Layer 1">
      <g>
        <path class="cls-1" d="m145.05,206.91c.2,192.76.41,385.52.61,578.29,3.07,17.42,18.17,91.82,87.79,145.49,64.85,50,134.57,49.3,153.47,48.5,25.82-4.78,45.11-25.21,47.47-48.7,2.88-28.58-19.73-57.14-52.39-60.98-18.5.94-60.28.38-87.99-27.83-24.33-24.77-25.88-58.71-26.6-81.85-3.38-107.55-3.19-201.32-2.46-264.38,32.47-.41,64.94-.82,97.4-1.23,27.75-3.07,48.98-26,49.93-52.79,1.02-28.63-21.37-54.2-51.16-56.89-32.88-1.23-65.75-2.46-98.63-3.68-1.64-58.93-3.27-117.87-4.91-176.8-8.02-22-27.13-37.69-49.11-40.11-27.07-2.98-54.1,14.68-63.44,42.97Z"/>
        <path class="cls-1" d="m1333.55,612.7c-29.78-90.67-114.11-149.75-202.58-145.49-106.36,5.12-193.19,100.57-189.69,209.95,3.56,111.38,99.31,190.96,193.38,197.06,71.72,4.65,125.14-34.55,141.81-47.88,28.56-7.93,55.3-3.33,68.14,12.89,16.43,20.76,4.11,53,1.84,58.93-25.2,65.93-149.48,101.42-244.94,86.56-126-19.61-272.33-137.93-272.57-309.4-.22-163.75,132.9-308.87,298.35-313.08,211.44-5.39,357.84,253.58,316.77,329.66-10.72,19.86-35.12,29.01-60.78,33.15-81.65,1.84-163.3,3.68-244.94,5.52-26.88-5.06-47.01-25.89-49.73-49.73-3.43-30.05,21.23-61.1,57.09-64.46,62.62-1.23,125.23-2.46,187.85-3.68Z"/>
        <path class="cls-1" d="m4350.21,612.7c-29.78-90.67-114.11-149.75-202.58-145.49-106.36,5.12-193.19,100.57-189.69,209.95,3.56,111.38,99.31,190.96,193.38,197.06,71.72,4.65,125.14-34.55,141.81-47.88,28.56-7.93,55.3-3.33,68.14,12.89,16.43,20.76,4.11,53,1.84,58.93-25.2,65.93-149.48,101.42-244.94,86.56-126-19.61-272.33-137.93-272.57-309.4-.22-163.75,132.9-308.87,298.35-313.08,211.44-5.39,357.84,253.58,316.77,329.66-10.72,19.86-35.12,29.01-60.78,33.15-81.65,1.84-163.3,3.68-244.94,5.52-26.88-5.06-47.01-25.89-49.73-49.73-3.43-30.05,21.23-61.1,57.09-64.46,62.62-1.23,125.23-2.46,187.85-3.68Z"/>
        <path class="cls-1" d="m2241.49,513.24c-28.53-20.86-84.13-54.24-154.7-51.57-26.41,1-76.05,2.88-95.77,36.83-14.82,25.52-4.48,54.93-3.68,57.09,15.49,42.03,76.24,68.09,151.02,60.78,8.81.6,21.69,1.97,36.83,5.52,18.14,4.26,108.47,25.44,147.33,106.82,4.94,10.34,28.72,60.13,12.89,116.03-28.87,101.98-163.24,131.31-186.01,136.28-155.59,33.97-284.69-72.37-305.72-90.24-11.25-23.54-5.05-51.79,14.73-68.14,20.53-16.97,50.8-17.09,71.83,0,15.51,13.98,39.96,32.97,73.67,47.88,28.7,12.7,89.41,39.55,152.86,16.57,4.41-1.6,76.88-28.7,79.19-71.83,2.15-40.15-56.82-88.16-151.02-103.13-26.99-2.05-73.04-9.15-121.55-36.83-30.03-17.14-67.25-38.38-86.56-81.03-23.25-51.36-10.39-112.79,14.73-152.86,62.85-100.25,233.97-117.02,342.55-57.09,29.59,16.33,50.65,36.22,64.46,51.57,17.22,8.48,27.85,26.14,27.01,44.81-.94,20.87-15.92,36.19-31.92,42.36-17.62,6.79-37.81,2.98-52.18-9.82Z"/>
        <path class="cls-1" d="m3413.41,659.97c-6.82-166.19-150.53-293.07-297.11-299.58-106.01-4.71-184.39,54.83-209.95,76.12-2.06-101.09-4.1-202.17-6.14-303.27-8.97-21.42-29.43-35.49-51.56-35.61-25.76-.13-49.18,18.66-55.25,45.43.41,193.99.82,387.98,1.23,581.97,30.93,154.07,164.57,262.83,309.4,261.52,172.35-1.56,316.52-153.4,309.4-326.59Zm-306.95,212.41c-118.78.16-212.66-106.55-202.58-221,8.8-99.9,94.7-181.94,197.68-184.17,108.62-2.36,203.52,84.8,207.5,195.21,4.1,113.91-90.12,209.81-202.59,209.95Z"/>
        <path class="cls-1" d="m4892.89,931.3c-.82-99.04-1.64-198.08-2.46-297.12,6.67-32.95,27.63-113.11,98.22-181.71,102.75-99.85,232.17-98.93,257.83-98.22,25.58,3.95,43.68,26.93,41.74,51.57-1.79,22.84-20.4,41.84-44.2,44.2-19.63.08-95.94,2.68-162.07,61.39-55.2,49-71.38,108.74-76.12,130.15-3.27,93.31-6.55,186.62-9.82,279.93-1.36,28.82-24.76,51.24-51.57,51.57-23.85.29-45.77-16.97-51.57-41.74Z"/>
        <path class="cls-1" d="m5746.69,937.48c-.82-99.04-1.64-198.08-2.46-297.12,6.67-32.95,27.63-113.11,98.22-181.71,102.75-99.85,232.17-98.93,257.83-98.22,25.58,3.95,43.68,26.93,41.74,51.57-1.79,22.84-20.4,41.84-44.2,44.2-19.63.08-95.94,2.68-162.07,61.39-55.2,49-71.38,108.74-76.12,130.15-3.27,93.31-6.55,186.62-9.82,279.93-1.36,28.82-24.76,51.24-51.57,51.57-23.85.29-45.77-16.97-51.57-41.74Z"/>
        <path class="cls-1" d="m6761.88,914.73c-85.94-161.76-171.89-323.52-257.83-485.28-2.36-21.08,7.87-41.48,25.78-51.57,19.96-11.24,45.75-7.61,62.62,9.21,72.75,139.97,145.49,279.93,218.24,419.9,60.78-138.13,121.55-276.25,182.33-414.38,20.2-30.71,57.11-38.46,79.19-23.94,22.5,14.8,21.26,47.25,21.18,48.8-118.48,270.11-236.96,540.22-355.44,810.34-15.42,16.28-39.73,20.75-59.85,11.05-20.33-9.8-31.98-31.94-28.55-54.33,37.45-89.94,74.89-179.87,112.34-269.81Z"/>
      </g>
      <g class="cls-4">
        <circle class="cls-3" cx="-1568.32" cy="2380.78" r="2344.73"/>
      </g>
    </g>
  </g>
</svg>